<svg xmlns="http://www.w3.org/2000/svg" xmlns:xlink="http://www.w3.org/1999/xlink" width="500" zoomAndPan="magnify" viewBox="0 0 375 374.999991" height="500" preserveAspectRatio="xMidYMid meet" version="1.0"><defs><clipPath id="6ffc358b4e"><path d="M 124 113 L 229 113 L 229 217 L 124 217 Z M 124 113 " clip-rule="nonzero"/></clipPath><clipPath id="af14f97ab7"><path d="M 106.976562 138.886719 L 200.574219 94.703125 L 245.71875 190.332031 L 152.125 234.515625 Z M 106.976562 138.886719 " clip-rule="nonzero"/></clipPath><clipPath id="58148d91b3"><path d="M 106.976562 138.886719 L 200.574219 94.703125 L 245.71875 190.332031 L 152.125 234.515625 Z M 106.976562 138.886719 " clip-rule="nonzero"/></clipPath><clipPath id="ff20e6f551"><path d="M 106.976562 138.886719 L 200.574219 94.703125 L 245.71875 190.332031 L 152.125 234.515625 Z M 106.976562 138.886719 " clip-rule="nonzero"/></clipPath><clipPath id="e18349a4e0"><path d="M 167 153 L 177 153 L 177 190.339844 L 167 190.339844 Z M 167 153 " clip-rule="nonzero"/></clipPath><clipPath id="d2eeecff8b"><path d="M 181 164 L 192 164 L 192 190.339844 L 181 190.339844 Z M 181 164 " clip-rule="nonzero"/></clipPath><clipPath id="98a0fdbee6"><path d="M 197 147 L 208 147 L 208 190.339844 L 197 190.339844 Z M 197 147 " clip-rule="nonzero"/></clipPath><clipPath id="937e6a098e"><path d="M 151.796875 164 L 162 164 L 162 190.339844 L 151.796875 190.339844 Z M 151.796875 164 " clip-rule="nonzero"/></clipPath><clipPath id="aee497175b"><path d="M 152 139.339844 L 210.296875 139.339844 L 210.296875 169 L 152 169 Z M 152 139.339844 " clip-rule="nonzero"/></clipPath></defs><g clip-path="url(#6ffc358b4e)"><g clip-path="url(#af14f97ab7)"><g clip-path="url(#58148d91b3)"><g clip-path="url(#ff20e6f551)"><path fill="#000000" d="M 224.058594 144.457031 L 224.285156 144.941406 L 224.488281 145.433594 L 224.898438 146.417969 L 225.304688 147.410156 L 225.660156 148.414062 C 227.597656 153.78125 228.558594 159.507812 228.625 165.253906 C 228.644531 171.007812 227.675781 176.769531 225.835938 182.257812 C 223.945312 187.726562 221.261719 192.964844 217.726562 197.632812 C 214.171875 202.269531 209.75 206.308594 204.703125 209.285156 C 202.183594 210.773438 199.5625 212.085938 196.828125 213.101562 C 194.101562 214.121094 191.292969 214.910156 188.449219 215.429688 C 185.597656 215.929688 182.714844 216.179688 179.851562 216.152344 C 176.988281 216.097656 174.144531 215.816406 171.386719 215.199219 C 171.257812 215.167969 171.175781 215.039062 171.203125 214.910156 C 171.230469 214.800781 171.324219 214.726562 171.429688 214.722656 L 171.433594 214.722656 C 174.234375 214.617188 176.996094 214.410156 179.707031 213.976562 C 182.414062 213.542969 185.074219 212.9375 187.664062 212.148438 C 190.25 211.34375 192.761719 210.367188 195.1875 209.21875 C 195.792969 208.929688 196.386719 208.621094 196.988281 208.328125 L 198.746094 207.355469 L 199.1875 207.117188 L 199.613281 206.855469 L 200.46875 206.335938 L 201.324219 205.8125 L 202.148438 205.25 C 204.367188 203.777344 206.480469 202.15625 208.453125 200.378906 C 208.960938 199.953125 209.433594 199.480469 209.917969 199.03125 L 210.644531 198.347656 L 211.335938 197.628906 C 212.277344 196.691406 213.160156 195.695312 214.027344 194.683594 L 215.300781 193.140625 L 216.496094 191.539062 C 216.703125 191.277344 216.882812 190.996094 217.070312 190.71875 L 217.628906 189.886719 C 218.015625 189.339844 218.351562 188.761719 218.695312 188.1875 L 219.214844 187.328125 L 219.695312 186.445312 C 220.007812 185.855469 220.347656 185.273438 220.617188 184.660156 L 221.046875 183.75 C 221.1875 183.445312 221.339844 183.148438 221.460938 182.835938 L 222.234375 180.972656 C 224.132812 175.949219 225.253906 170.613281 225.441406 165.214844 C 225.632812 159.824219 224.992188 154.367188 223.386719 149.167969 L 223.097656 148.1875 L 222.425781 146.257812 L 222.257812 145.777344 L 222.0625 145.304688 L 221.289062 143.40625 C 221 142.789062 220.730469 142.160156 220.425781 141.550781 C 219.222656 139.097656 217.824219 136.734375 216.234375 134.492188 C 214.632812 132.261719 212.847656 130.160156 210.902344 128.203125 C 208.953125 126.25 206.839844 124.453125 204.589844 122.828125 L 204.585938 122.828125 C 204.480469 122.75 204.457031 122.601562 204.535156 122.492188 C 204.609375 122.390625 204.75 122.363281 204.855469 122.429688 C 207.226562 123.921875 209.488281 125.605469 211.601562 127.46875 C 213.695312 129.347656 215.640625 131.402344 217.414062 133.605469 C 219.171875 135.816406 220.753906 138.179688 222.140625 140.652344 C 222.492188 141.269531 222.808594 141.90625 223.144531 142.53125 Z M 136.210938 137.699219 L 137.40625 136.097656 L 138.679688 134.554688 C 139.546875 133.546875 140.429688 132.546875 141.371094 131.609375 L 142.0625 130.890625 L 142.789062 130.207031 C 143.277344 129.757812 143.746094 129.289062 144.253906 128.859375 C 146.226562 127.082031 148.34375 125.464844 150.558594 123.988281 L 151.382812 123.425781 L 152.238281 122.902344 L 153.09375 122.382812 L 153.519531 122.121094 L 153.960938 121.882812 L 155.71875 120.914062 C 156.320312 120.617188 156.914062 120.308594 157.519531 120.023438 C 159.945312 118.875 162.460938 117.898438 165.042969 117.09375 C 167.632812 116.304688 170.292969 115.695312 173 115.261719 C 175.710938 114.828125 178.472656 114.621094 181.273438 114.515625 L 181.277344 114.515625 C 181.382812 114.511719 181.476562 114.4375 181.503906 114.328125 C 181.53125 114.199219 181.449219 114.070312 181.320312 114.039062 C 178.5625 113.425781 175.71875 113.140625 172.855469 113.085938 C 169.992188 113.058594 167.109375 113.308594 164.257812 113.8125 C 161.414062 114.328125 158.605469 115.117188 155.878906 116.136719 C 153.144531 117.152344 150.523438 118.464844 148.003906 119.953125 C 142.957031 122.929688 138.535156 126.96875 134.980469 131.609375 C 131.445312 136.273438 128.761719 141.515625 126.871094 146.980469 C 125.03125 152.472656 124.0625 158.234375 124.082031 163.984375 C 124.148438 169.730469 125.109375 175.457031 127.046875 180.824219 L 127.40625 181.832031 L 127.808594 182.820312 L 128.21875 183.804688 L 128.421875 184.300781 L 128.648438 184.78125 L 129.5625 186.707031 C 129.898438 187.335938 130.214844 187.96875 130.566406 188.585938 C 131.953125 191.0625 133.535156 193.421875 135.292969 195.636719 C 137.066406 197.835938 139.011719 199.894531 141.105469 201.773438 C 143.21875 203.636719 145.480469 205.316406 147.851562 206.808594 C 147.957031 206.875 148.097656 206.851562 148.171875 206.746094 C 148.25 206.640625 148.226562 206.492188 148.121094 206.414062 L 148.117188 206.414062 C 145.871094 204.789062 143.753906 202.988281 141.804688 201.039062 C 139.859375 199.082031 138.074219 196.976562 136.472656 194.746094 C 134.882812 192.507812 133.484375 190.144531 132.28125 187.691406 C 131.976562 187.078125 131.707031 186.449219 131.417969 185.832031 L 130.644531 183.9375 L 130.449219 183.464844 L 130.28125 182.980469 L 129.945312 182.015625 L 129.609375 181.054688 L 129.320312 180.074219 C 127.714844 174.875 127.074219 169.417969 127.265625 164.027344 C 127.457031 158.628906 128.574219 153.289062 130.472656 148.265625 L 131.246094 146.40625 C 131.367188 146.09375 131.519531 145.792969 131.660156 145.488281 L 132.089844 144.578125 C 132.359375 143.964844 132.699219 143.386719 133.011719 142.792969 L 133.492188 141.910156 L 134.011719 141.050781 C 134.355469 140.480469 134.691406 139.898438 135.078125 139.351562 L 135.636719 138.519531 C 135.824219 138.242188 136.003906 137.964844 136.210938 137.699219 Z M 136.210938 137.699219 " fill-opacity="1" fill-rule="nonzero"/></g></g></g></g><g clip-path="url(#e18349a4e0)"><path fill="#81b7ff" d="M 167.101562 158.265625 L 171.820312 153.296875 L 176.421875 158.265625 L 176.421875 190.070312 L 167.101562 190.070312 Z M 167.101562 158.265625 " fill-opacity="1" fill-rule="nonzero"/></g><g clip-path="url(#d2eeecff8b)"><path fill="#81b7ff" d="M 191.285156 164.714844 C 191.285156 164.703125 191.285156 164.691406 191.285156 164.679688 C 191.285156 163.757812 190.847656 164.230469 190.125 165.007812 C 189.277344 165.929688 188.027344 167.273438 186.632812 167.273438 C 185.238281 167.273438 183.988281 165.933594 183.132812 165.011719 C 182.402344 164.230469 181.960938 163.757812 181.960938 164.679688 C 181.960938 164.691406 181.960938 164.703125 181.960938 164.714844 L 181.960938 190.054688 L 191.285156 190.054688 Z M 191.285156 164.714844 " fill-opacity="1" fill-rule="evenodd"/></g><g clip-path="url(#98a0fdbee6)"><path fill="#81b7ff" d="M 197.777344 157.140625 L 207.101562 147.898438 L 207.101562 190.070312 L 197.777344 190.070312 Z M 197.777344 157.140625 " fill-opacity="1" fill-rule="nonzero"/></g><g clip-path="url(#937e6a098e)"><path fill="#81b7ff" d="M 156.011719 169.921875 L 151.839844 164.96875 L 151.839844 167.398438 C 151.816406 167.460938 151.800781 167.554688 151.800781 167.683594 C 151.800781 167.8125 151.816406 167.941406 151.839844 168.066406 L 151.839844 190.070312 L 161.164062 190.070312 L 161.164062 164.96875 L 156.804688 169.933594 C 156.6875 169.949219 156.570312 169.960938 156.453125 169.960938 C 156.304688 169.960938 156.15625 169.949219 156.011719 169.921875 Z M 156.011719 169.921875 " fill-opacity="1" fill-rule="evenodd"/></g><g clip-path="url(#aee497175b)"><path fill="#000000" d="M 207.925781 147.582031 L 210.144531 139.339844 L 201.933594 141.675781 L 203.40625 143.128906 L 186.851562 159.796875 L 173.296875 145.808594 L 171.800781 144.175781 L 168.921875 147.460938 L 168.875 147.511719 L 168.878906 147.511719 L 155.789062 162.453125 L 152.183594 158.835938 L 152.183594 163.910156 L 156.390625 168.574219 L 156.769531 168.089844 L 171.910156 150.742188 L 183.539062 163.132812 L 183.527344 163.144531 L 184.390625 164.039062 L 186.269531 166.039062 L 186.292969 166.011719 L 186.667969 166.402344 L 206.726562 146.398438 Z M 207.925781 147.582031 " fill-opacity="1" fill-rule="evenodd"/></g><path stroke-linecap="butt" transform="matrix(0, 0.75, -0.75, 0, 152.544515, 139.342872)" fill="none" stroke-linejoin="miter" d="M 0.00117007 1.002062 L 67.652216 1.002062 " stroke="#000000" stroke-width="2" stroke-opacity="1" stroke-miterlimit="4"/><path stroke-linecap="butt" transform="matrix(0.602745, 0.446316, -0.446316, 0.602745, 225.934648, 187.273538)" fill="none" stroke-linejoin="miter" d="M 0.000615917 14.496847 L 55.309971 14.500241 " stroke="#000000" stroke-width="29" stroke-opacity="1" stroke-miterlimit="4"/><path stroke-linecap="butt" transform="matrix(0.75, 0, 0, 0.75, 151.798795, 189.327614)" fill="none" stroke-linejoin="miter" d="M -0.00255938 1.000681 L 75.460987 1.000681 " stroke="#000000" stroke-width="2" stroke-opacity="1" stroke-miterlimit="4"/></svg>