<svg xmlns="http://www.w3.org/2000/svg" xmlns:xlink="http://www.w3.org/1999/xlink" width="500" zoomAndPan="magnify" viewBox="0 0 375 374.999991" height="500" preserveAspectRatio="xMidYMid meet" version="1.0"><defs><g/><clipPath id="5c944dcdbe"><path d="M 71 175 L 122 175 L 122 228 L 71 228 Z M 71 175 " clip-rule="nonzero"/></clipPath><clipPath id="b076068e4f"><path d="M 85.4375 167.097656 L 130.300781 189.734375 L 106.984375 235.9375 L 62.125 213.296875 Z M 85.4375 167.097656 " clip-rule="nonzero"/></clipPath><clipPath id="d664626192"><path d="M 85.4375 167.097656 L 130.300781 189.734375 L 106.984375 235.9375 L 62.125 213.296875 Z M 85.4375 167.097656 " clip-rule="nonzero"/></clipPath><clipPath id="118730e4e5"><path d="M 85.4375 167.097656 L 130.300781 189.734375 L 106.984375 235.9375 L 62.125 213.296875 Z M 85.4375 167.097656 " clip-rule="nonzero"/></clipPath><clipPath id="64d1e3bdca"><path d="M 91 196 L 97 196 L 97 213.964844 L 91 213.964844 Z M 91 196 " clip-rule="nonzero"/></clipPath><clipPath id="95a599b381"><path d="M 99 201 L 104 201 L 104 213.964844 L 99 213.964844 Z M 99 201 " clip-rule="nonzero"/></clipPath><clipPath id="305d2ba28c"><path d="M 106 193 L 112 193 L 112 213.964844 L 106 213.964844 Z M 106 193 " clip-rule="nonzero"/></clipPath><clipPath id="3f8a05473a"><path d="M 84.367188 201 L 89 201 L 89 213.964844 L 84.367188 213.964844 Z M 84.367188 201 " clip-rule="nonzero"/></clipPath><clipPath id="6e7ce83283"><path d="M 84.367188 189.214844 L 112.867188 189.214844 L 112.867188 204 L 84.367188 204 Z M 84.367188 189.214844 " clip-rule="nonzero"/></clipPath></defs><g fill="#004aad" fill-opacity="1"><g transform="translate(87.224911, 168.280038)"><g><path d="M 21.421875 -23.34375 L 21.421875 0 L 11.34375 0 L 11.34375 -23.34375 L 1.046875 -23.34375 L 1.046875 -31.359375 L 31.671875 -31.359375 L 31.671875 -23.34375 Z M 21.421875 -23.34375 "/></g></g></g><g fill="#004aad" fill-opacity="1"><g transform="translate(118.169721, 168.280038)"><g><path d="M 17.359375 -24.65625 C 18.054688 -24.65625 18.675781 -24.570312 19.21875 -24.40625 C 19.769531 -24.238281 20.046875 -24.140625 20.046875 -24.109375 L 20.046875 -16.5 L 17.140625 -16.5 C 15.253906 -16.5 13.894531 -16.007812 13.0625 -15.03125 C 12.226562 -14.0625 11.8125 -12.617188 11.8125 -10.703125 L 11.8125 0 L 2.734375 0 L 2.734375 -24.0625 L 10.15625 -24.0625 L 10.75 -20.421875 C 11.300781 -21.816406 12.164062 -22.867188 13.34375 -23.578125 C 14.53125 -24.296875 15.867188 -24.65625 17.359375 -24.65625 Z M 17.359375 -24.65625 "/></g></g></g><g fill="#004aad" fill-opacity="1"><g transform="translate(139.179539, 168.280038)"><g><path d="M 14.625 -24.609375 C 18.300781 -24.609375 21.296875 -23.992188 23.609375 -22.765625 C 25.921875 -21.535156 27.078125 -19.535156 27.078125 -16.765625 L 27.078125 -7.390625 C 27.078125 -6.867188 27.195312 -6.441406 27.4375 -6.109375 C 27.675781 -5.773438 28.039062 -5.609375 28.53125 -5.609375 L 30.171875 -5.609375 L 30.171875 -0.359375 C 30.078125 -0.304688 29.835938 -0.207031 29.453125 -0.0625 C 29.078125 0.0703125 28.539062 0.207031 27.84375 0.34375 C 27.144531 0.476562 26.34375 0.546875 25.4375 0.546875 C 23.675781 0.546875 22.222656 0.28125 21.078125 -0.25 C 19.941406 -0.78125 19.160156 -1.519531 18.734375 -2.46875 C 17.578125 -1.550781 16.285156 -0.816406 14.859375 -0.265625 C 13.429688 0.273438 11.757812 0.546875 9.84375 0.546875 C 4.195312 0.546875 1.375 -1.703125 1.375 -6.203125 C 1.375 -8.535156 2.003906 -10.316406 3.265625 -11.546875 C 4.523438 -12.785156 6.335938 -13.628906 8.703125 -14.078125 C 11.078125 -14.535156 14.175781 -14.765625 18 -14.765625 L 18 -15.953125 C 18 -16.890625 17.671875 -17.601562 17.015625 -18.09375 C 16.367188 -18.582031 15.53125 -18.828125 14.5 -18.828125 C 13.550781 -18.828125 12.734375 -18.660156 12.046875 -18.328125 C 11.367188 -17.992188 11.03125 -17.460938 11.03125 -16.734375 L 11.03125 -16.546875 L 2.09375 -16.546875 C 2.0625 -16.691406 2.046875 -16.90625 2.046875 -17.1875 C 2.046875 -19.457031 3.128906 -21.257812 5.296875 -22.59375 C 7.472656 -23.9375 10.582031 -24.609375 14.625 -24.609375 Z M 18 -10.484375 C 15.414062 -10.484375 13.507812 -10.203125 12.28125 -9.640625 C 11.050781 -9.078125 10.4375 -8.328125 10.4375 -7.390625 C 10.4375 -5.867188 11.46875 -5.109375 13.53125 -5.109375 C 14.71875 -5.109375 15.757812 -5.425781 16.65625 -6.0625 C 17.550781 -6.695312 18 -7.488281 18 -8.4375 Z M 18 -10.484375 "/></g></g></g><g fill="#004aad" fill-opacity="1"><g transform="translate(169.577596, 168.280038)"><g><path d="M 15.171875 -24.609375 C 19.128906 -24.609375 22.328125 -23.765625 24.765625 -22.078125 C 27.210938 -20.390625 28.4375 -17.816406 28.4375 -14.359375 L 19.640625 -14.359375 C 19.640625 -17.085938 18.148438 -18.453125 15.171875 -18.453125 C 12.191406 -18.453125 10.703125 -16.738281 10.703125 -13.3125 L 10.703125 -10.703125 C 10.703125 -7.304688 12.253906 -5.609375 15.359375 -5.609375 C 18.460938 -5.609375 20.015625 -7.003906 20.015625 -9.796875 L 28.4375 -9.796875 C 28.4375 -6.304688 27.210938 -3.707031 24.765625 -2 C 22.328125 -0.300781 19.128906 0.546875 15.171875 0.546875 C 10.953125 0.546875 7.640625 -0.515625 5.234375 -2.640625 C 2.835938 -4.765625 1.640625 -7.894531 1.640625 -12.03125 C 1.640625 -16.164062 2.835938 -19.296875 5.234375 -21.421875 C 7.640625 -23.546875 10.953125 -24.609375 15.171875 -24.609375 Z M 15.171875 -24.609375 "/></g></g></g><g fill="#004aad" fill-opacity="1"><g transform="translate(199.200832, 168.280038)"><g><path d="M 19.5 -24.0625 L 30.078125 -24.0625 L 21.1875 -14.359375 L 30.3125 0 L 20.015625 0 L 14.953125 -8.25 L 11.8125 -5.203125 L 11.8125 0 L 2.734375 0 L 2.734375 -33.09375 L 11.8125 -33.09375 L 11.8125 -14.859375 Z M 19.5 -24.0625 "/></g></g></g><g fill="#004aad" fill-opacity="1"><g transform="translate(125.842964, 208.669484)"><g><path d="M 16.546875 -31.90625 C 20.554688 -31.90625 23.851562 -31.09375 26.4375 -29.46875 C 29.019531 -27.84375 30.34375 -25.429688 30.40625 -22.234375 L 30.40625 -21.6875 L 20.96875 -21.6875 L 20.96875 -21.875 C 20.96875 -22.789062 20.628906 -23.550781 19.953125 -24.15625 C 19.285156 -24.757812 18.269531 -25.0625 16.90625 -25.0625 C 15.570312 -25.0625 14.546875 -24.863281 13.828125 -24.46875 C 13.117188 -24.082031 12.765625 -23.597656 12.765625 -23.015625 C 12.765625 -22.191406 13.25 -21.582031 14.21875 -21.1875 C 15.1875 -20.789062 16.753906 -20.382812 18.921875 -19.96875 C 21.441406 -19.445312 23.515625 -18.90625 25.140625 -18.34375 C 26.765625 -17.78125 28.179688 -16.859375 29.390625 -15.578125 C 30.609375 -14.304688 31.234375 -12.578125 31.265625 -10.390625 C 31.265625 -6.679688 30.007812 -3.929688 27.5 -2.140625 C 25 -0.347656 21.648438 0.546875 17.453125 0.546875 C 12.566406 0.546875 8.757812 -0.269531 6.03125 -1.90625 C 3.3125 -3.550781 1.953125 -6.457031 1.953125 -10.625 L 11.484375 -10.625 C 11.484375 -9.039062 11.894531 -7.984375 12.71875 -7.453125 C 13.539062 -6.921875 14.816406 -6.65625 16.546875 -6.65625 C 17.816406 -6.65625 18.867188 -6.789062 19.703125 -7.0625 C 20.546875 -7.332031 20.96875 -7.894531 20.96875 -8.75 C 20.96875 -9.507812 20.503906 -10.078125 19.578125 -10.453125 C 18.648438 -10.835938 17.140625 -11.242188 15.046875 -11.671875 C 12.492188 -12.210938 10.378906 -12.78125 8.703125 -13.375 C 7.035156 -13.96875 5.578125 -14.945312 4.328125 -16.3125 C 3.085938 -17.6875 2.46875 -19.539062 2.46875 -21.875 C 2.46875 -25.3125 3.796875 -27.84375 6.453125 -29.46875 C 9.109375 -31.09375 12.472656 -31.90625 16.546875 -31.90625 Z M 16.546875 -31.90625 "/></g></g></g><g fill="#004aad" fill-opacity="1"><g transform="translate(158.74761, 208.669484)"><g><path d="M 18.78125 -24.0625 L 18.78125 -17.90625 L 13.671875 -17.90625 L 13.671875 -8.75 C 13.671875 -7.65625 13.851562 -6.859375 14.21875 -6.359375 C 14.582031 -5.859375 15.25 -5.609375 16.21875 -5.609375 L 18.78125 -5.609375 L 18.78125 -0.28125 C 18.050781 -0.03125 17.109375 0.164062 15.953125 0.3125 C 14.796875 0.46875 13.789062 0.546875 12.9375 0.546875 C 10.269531 0.546875 8.210938 0.0625 6.765625 -0.90625 C 5.328125 -1.882812 4.609375 -3.539062 4.609375 -5.875 L 4.609375 -17.90625 L 1.234375 -17.90625 L 1.234375 -24.0625 L 4.96875 -24.0625 L 6.921875 -31.359375 L 13.671875 -31.359375 L 13.671875 -24.0625 Z M 18.78125 -24.0625 "/></g></g></g><g fill="#004aad" fill-opacity="1"><g transform="translate(178.982606, 208.669484)"><g><path d="M 14.625 -24.609375 C 18.300781 -24.609375 21.296875 -23.992188 23.609375 -22.765625 C 25.921875 -21.535156 27.078125 -19.535156 27.078125 -16.765625 L 27.078125 -7.390625 C 27.078125 -6.867188 27.195312 -6.441406 27.4375 -6.109375 C 27.675781 -5.773438 28.039062 -5.609375 28.53125 -5.609375 L 30.171875 -5.609375 L 30.171875 -0.359375 C 30.078125 -0.304688 29.835938 -0.207031 29.453125 -0.0625 C 29.078125 0.0703125 28.539062 0.207031 27.84375 0.34375 C 27.144531 0.476562 26.34375 0.546875 25.4375 0.546875 C 23.675781 0.546875 22.222656 0.28125 21.078125 -0.25 C 19.941406 -0.78125 19.160156 -1.519531 18.734375 -2.46875 C 17.578125 -1.550781 16.285156 -0.816406 14.859375 -0.265625 C 13.429688 0.273438 11.757812 0.546875 9.84375 0.546875 C 4.195312 0.546875 1.375 -1.703125 1.375 -6.203125 C 1.375 -8.535156 2.003906 -10.316406 3.265625 -11.546875 C 4.523438 -12.785156 6.335938 -13.628906 8.703125 -14.078125 C 11.078125 -14.535156 14.175781 -14.765625 18 -14.765625 L 18 -15.953125 C 18 -16.890625 17.671875 -17.601562 17.015625 -18.09375 C 16.367188 -18.582031 15.53125 -18.828125 14.5 -18.828125 C 13.550781 -18.828125 12.734375 -18.660156 12.046875 -18.328125 C 11.367188 -17.992188 11.03125 -17.460938 11.03125 -16.734375 L 11.03125 -16.546875 L 2.09375 -16.546875 C 2.0625 -16.691406 2.046875 -16.90625 2.046875 -17.1875 C 2.046875 -19.457031 3.128906 -21.257812 5.296875 -22.59375 C 7.472656 -23.9375 10.582031 -24.609375 14.625 -24.609375 Z M 18 -10.484375 C 15.414062 -10.484375 13.507812 -10.203125 12.28125 -9.640625 C 11.050781 -9.078125 10.4375 -8.328125 10.4375 -7.390625 C 10.4375 -5.867188 11.46875 -5.109375 13.53125 -5.109375 C 14.71875 -5.109375 15.757812 -5.425781 16.65625 -6.0625 C 17.550781 -6.695312 18 -7.488281 18 -8.4375 Z M 18 -10.484375 "/></g></g></g><g fill="#004aad" fill-opacity="1"><g transform="translate(209.380663, 208.669484)"><g><path d="M 17.359375 -24.65625 C 18.054688 -24.65625 18.675781 -24.570312 19.21875 -24.40625 C 19.769531 -24.238281 20.046875 -24.140625 20.046875 -24.109375 L 20.046875 -16.5 L 17.140625 -16.5 C 15.253906 -16.5 13.894531 -16.007812 13.0625 -15.03125 C 12.226562 -14.0625 11.8125 -12.617188 11.8125 -10.703125 L 11.8125 0 L 2.734375 0 L 2.734375 -24.0625 L 10.15625 -24.0625 L 10.75 -20.421875 C 11.300781 -21.816406 12.164062 -22.867188 13.34375 -23.578125 C 14.53125 -24.296875 15.867188 -24.65625 17.359375 -24.65625 Z M 17.359375 -24.65625 "/></g></g></g><g fill="#004aad" fill-opacity="1"><g transform="translate(231.894532, 208.669484)"><g><path d="M 18.78125 -24.0625 L 18.78125 -17.90625 L 13.671875 -17.90625 L 13.671875 -8.75 C 13.671875 -7.65625 13.851562 -6.859375 14.21875 -6.359375 C 14.582031 -5.859375 15.25 -5.609375 16.21875 -5.609375 L 18.78125 -5.609375 L 18.78125 -0.28125 C 18.050781 -0.03125 17.109375 0.164062 15.953125 0.3125 C 14.796875 0.46875 13.789062 0.546875 12.9375 0.546875 C 10.269531 0.546875 8.210938 0.0625 6.765625 -0.90625 C 5.328125 -1.882812 4.609375 -3.539062 4.609375 -5.875 L 4.609375 -17.90625 L 1.234375 -17.90625 L 1.234375 -24.0625 L 4.96875 -24.0625 L 6.921875 -31.359375 L 13.671875 -31.359375 L 13.671875 -24.0625 Z M 18.78125 -24.0625 "/></g></g></g><g fill="#004aad" fill-opacity="1"><g transform="translate(252.129528, 208.669484)"><g><path d="M 20.1875 0 L 19.59375 -3.640625 C 18.65625 -2.335938 17.414062 -1.3125 15.875 -0.5625 C 14.34375 0.175781 12.726562 0.546875 11.03125 0.546875 C 8.238281 0.546875 6.140625 -0.226562 4.734375 -1.78125 C 3.335938 -3.332031 2.640625 -5.566406 2.640625 -8.484375 L 2.640625 -24.0625 L 11.71875 -24.0625 L 11.71875 -9.578125 C 11.71875 -8.535156 11.984375 -7.703125 12.515625 -7.078125 C 13.046875 -6.460938 13.796875 -6.15625 14.765625 -6.15625 C 15.890625 -6.15625 16.800781 -6.519531 17.5 -7.25 C 18.195312 -7.976562 18.546875 -8.875 18.546875 -9.9375 L 18.546875 -24.0625 L 27.625 -24.0625 L 27.625 0 Z M 20.1875 0 "/></g></g></g><g fill="#004aad" fill-opacity="1"><g transform="translate(282.527585, 208.669484)"><g><path d="M 18.59375 -24.609375 C 21.84375 -24.609375 24.347656 -23.546875 26.109375 -21.421875 C 27.878906 -19.296875 28.765625 -16.148438 28.765625 -11.984375 C 28.765625 -7.847656 27.878906 -4.722656 26.109375 -2.609375 C 24.347656 -0.503906 21.84375 0.546875 18.59375 0.546875 C 15.800781 0.546875 13.550781 -0.363281 11.84375 -2.1875 L 11.84375 8.984375 L 2.78125 8.984375 L 2.78125 -24.0625 L 10.15625 -24.0625 L 10.9375 -20.640625 C 12.695312 -23.285156 15.25 -24.609375 18.59375 -24.609375 Z M 15.765625 -17.90625 C 14.429688 -17.90625 13.429688 -17.4375 12.765625 -16.5 C 12.097656 -15.5625 11.765625 -14.332031 11.765625 -12.8125 L 11.765625 -11.296875 C 11.765625 -9.785156 12.097656 -8.550781 12.765625 -7.59375 C 13.429688 -6.632812 14.429688 -6.15625 15.765625 -6.15625 C 18.378906 -6.15625 19.6875 -7.71875 19.6875 -10.84375 L 19.6875 -13.265625 C 19.6875 -16.359375 18.378906 -17.90625 15.765625 -17.90625 Z M 15.765625 -17.90625 "/></g></g></g><g fill="#81b7ff" fill-opacity="1"><g transform="translate(235.765287, 168.447704)"><g><path d="M 30.3125 0 L 30.3125 -11.296875 C 30.3125 -12.703125 30.363281 -14.140625 30.46875 -15.609375 C 30.570312 -17.085938 30.6875 -18.328125 30.8125 -19.328125 C 30.9375 -20.328125 31.007812 -20.960938 31.03125 -21.234375 L 30.859375 -21.234375 L 25.0625 0 L 17.1875 0 L 11.34375 -21.1875 L 11.171875 -21.1875 C 11.203125 -20.914062 11.285156 -20.285156 11.421875 -19.296875 C 11.554688 -18.316406 11.679688 -17.085938 11.796875 -15.609375 C 11.921875 -14.140625 11.984375 -12.703125 11.984375 -11.296875 L 11.984375 0 L 2.734375 0 L 2.734375 -31.359375 L 16.953125 -31.359375 L 21.6875 -13.265625 L 21.875 -13.265625 L 26.578125 -31.359375 L 40.296875 -31.359375 L 40.296875 0 Z M 30.3125 0 "/></g></g></g><g fill="#81b7ff" fill-opacity="1"><g transform="translate(278.787436, 168.447704)"><g><path d="M 19.28125 -0.734375 C 18.03125 2.640625 16.5 5.203125 14.6875 6.953125 C 12.882812 8.703125 10.359375 9.578125 7.109375 9.578125 C 5.128906 9.578125 3.382812 9.300781 1.875 8.75 L 1.875 3.328125 L 5.515625 3.328125 C 7.796875 3.328125 9.148438 2.21875 9.578125 0 L 0 -24.0625 L 9.75 -24.0625 L 14.359375 -8.0625 L 14.671875 -8.0625 L 18.921875 -24.0625 L 27.84375 -24.0625 Z M 19.28125 -0.734375 "/></g></g></g><g clip-path="url(#5c944dcdbe)"><g clip-path="url(#b076068e4f)"><g clip-path="url(#d664626192)"><g clip-path="url(#118730e4e5)"><path fill="#000000" d="M 118.167969 213.773438 L 118.050781 214.003906 L 117.921875 214.230469 L 117.664062 214.6875 L 117.40625 215.140625 L 117.125 215.582031 C 115.640625 217.945312 113.722656 220.042969 111.535156 221.800781 C 109.328125 223.542969 106.824219 224.910156 104.167969 225.859375 C 101.503906 226.78125 98.6875 227.332031 95.84375 227.378906 C 93 227.414062 90.132812 226.933594 87.484375 225.890625 C 86.160156 225.371094 84.875 224.761719 83.671875 224.015625 C 82.464844 223.277344 81.328125 222.433594 80.28125 221.496094 C 79.238281 220.554688 78.285156 219.519531 77.441406 218.414062 C 76.609375 217.296875 75.871094 216.117188 75.289062 214.871094 C 75.257812 214.8125 75.285156 214.742188 75.34375 214.714844 C 75.394531 214.691406 75.449219 214.703125 75.484375 214.746094 C 76.359375 215.789062 77.261719 216.789062 78.234375 217.699219 C 79.210938 218.609375 80.234375 219.449219 81.308594 220.207031 C 82.386719 220.957031 83.511719 221.628906 84.675781 222.214844 C 84.964844 222.359375 85.261719 222.496094 85.554688 222.636719 L 86.449219 223.019531 L 86.671875 223.117188 L 86.902344 223.203125 L 87.355469 223.375 L 87.8125 223.542969 L 88.273438 223.691406 C 89.5 224.097656 90.753906 224.425781 92.023438 224.644531 C 92.339844 224.710938 92.660156 224.75 92.980469 224.800781 L 93.457031 224.875 L 93.941406 224.921875 C 94.582031 225.003906 95.226562 225.039062 95.871094 225.070312 L 96.84375 225.09375 L 97.816406 225.070312 C 97.980469 225.070312 98.140625 225.054688 98.304688 225.042969 L 98.789062 225.007812 C 99.117188 224.992188 99.4375 224.945312 99.761719 224.90625 L 100.246094 224.84375 L 100.726562 224.761719 C 101.046875 224.703125 101.375 224.660156 101.6875 224.578125 L 102.167969 224.46875 C 102.324219 224.429688 102.488281 224.398438 102.644531 224.351562 L 103.585938 224.085938 C 106.085938 223.300781 108.46875 222.121094 110.601562 220.566406 C 112.730469 219.011719 114.636719 217.121094 116.15625 214.933594 L 116.449219 214.527344 L 116.71875 214.109375 L 116.988281 213.6875 L 117.125 213.476562 L 117.25 213.261719 L 117.746094 212.390625 C 117.898438 212.09375 118.058594 211.800781 118.203125 211.5 C 118.789062 210.296875 119.28125 209.046875 119.667969 207.757812 C 120.050781 206.472656 120.324219 205.152344 120.5 203.8125 C 120.667969 202.472656 120.730469 201.121094 120.683594 199.765625 L 120.683594 199.761719 C 120.683594 199.699219 120.730469 199.644531 120.796875 199.644531 C 120.859375 199.640625 120.910156 199.6875 120.917969 199.746094 C 121.050781 201.109375 121.074219 202.484375 120.988281 203.859375 C 120.890625 205.230469 120.679688 206.597656 120.359375 207.945312 C 120.035156 209.289062 119.597656 210.609375 119.058594 211.886719 C 118.925781 212.210938 118.777344 212.523438 118.636719 212.839844 Z M 94.601562 177.972656 L 95.574219 177.949219 L 96.546875 177.972656 C 97.191406 178.003906 97.839844 178.039062 98.480469 178.121094 L 98.960938 178.167969 L 99.441406 178.242188 C 99.757812 178.292969 100.078125 178.332031 100.394531 178.398438 C 101.667969 178.617188 102.917969 178.945312 104.144531 179.351562 L 104.609375 179.5 L 105.0625 179.667969 L 105.515625 179.839844 L 105.746094 179.925781 L 105.96875 180.023438 L 106.863281 180.40625 C 107.15625 180.546875 107.453125 180.683594 107.742188 180.828125 C 108.90625 181.414062 110.03125 182.085938 111.109375 182.835938 C 112.183594 183.59375 113.210938 184.433594 114.183594 185.34375 C 115.160156 186.253906 116.058594 187.253906 116.933594 188.296875 L 116.9375 188.296875 C 116.96875 188.339844 117.027344 188.351562 117.074219 188.328125 C 117.132812 188.300781 117.160156 188.230469 117.132812 188.171875 C 116.546875 186.925781 115.808594 185.746094 114.976562 184.628906 C 114.132812 183.523438 113.179688 182.488281 112.136719 181.546875 C 111.089844 180.609375 109.953125 179.765625 108.746094 179.027344 C 107.542969 178.28125 106.257812 177.671875 104.9375 177.152344 C 102.289062 176.109375 99.417969 175.628906 96.578125 175.664062 C 93.730469 175.710938 90.917969 176.261719 88.25 177.183594 C 85.59375 178.132812 83.089844 179.5 80.882812 181.242188 C 78.695312 183 76.78125 185.097656 75.292969 187.460938 L 75.015625 187.902344 L 74.753906 188.355469 L 74.496094 188.8125 L 74.367188 189.039062 L 74.25 189.269531 L 73.78125 190.203125 C 73.640625 190.519531 73.492188 190.835938 73.359375 191.15625 C 72.820312 192.433594 72.382812 193.753906 72.058594 195.097656 C 71.738281 196.445312 71.527344 197.8125 71.429688 199.183594 C 71.34375 200.558594 71.371094 201.933594 71.503906 203.296875 C 71.507812 203.355469 71.558594 203.402344 71.621094 203.402344 C 71.6875 203.398438 71.738281 203.34375 71.734375 203.28125 L 71.734375 203.277344 C 71.6875 201.925781 71.75 200.570312 71.921875 199.230469 C 72.09375 197.894531 72.371094 196.570312 72.75 195.285156 C 73.136719 193.996094 73.628906 192.746094 74.214844 191.542969 C 74.359375 191.242188 74.519531 190.949219 74.671875 190.652344 L 75.167969 189.78125 L 75.292969 189.566406 L 75.429688 189.355469 L 75.699219 188.933594 L 75.96875 188.515625 L 76.261719 188.109375 C 77.78125 185.921875 79.6875 184.03125 81.816406 182.476562 C 83.949219 180.921875 86.335938 179.742188 88.832031 178.957031 L 89.777344 178.691406 C 89.933594 178.644531 90.09375 178.613281 90.25 178.574219 L 90.730469 178.464844 C 91.046875 178.382812 91.371094 178.339844 91.691406 178.28125 L 92.171875 178.199219 L 92.65625 178.140625 C 92.980469 178.097656 93.304688 178.054688 93.628906 178.035156 L 94.113281 178 C 94.277344 177.988281 94.4375 177.972656 94.601562 177.972656 Z M 94.601562 177.972656 " fill-opacity="1" fill-rule="nonzero"/></g></g></g></g><g clip-path="url(#64d1e3bdca)"><path fill="#81b7ff" d="M 91.871094 198.496094 L 94.1875 196.058594 L 96.441406 198.496094 L 96.441406 214.09375 L 91.871094 214.09375 Z M 91.871094 198.496094 " fill-opacity="1" fill-rule="nonzero"/></g><g clip-path="url(#95a599b381)"><path fill="#81b7ff" d="M 103.730469 201.660156 C 103.730469 201.652344 103.730469 201.648438 103.730469 201.640625 C 103.730469 201.191406 103.515625 201.421875 103.164062 201.804688 C 102.746094 202.253906 102.132812 202.914062 101.449219 202.914062 C 100.765625 202.914062 100.152344 202.257812 99.734375 201.804688 C 99.375 201.421875 99.160156 201.191406 99.160156 201.640625 C 99.160156 201.648438 99.160156 201.652344 99.160156 201.660156 L 99.160156 214.085938 L 103.730469 214.085938 Z M 103.730469 201.660156 " fill-opacity="1" fill-rule="evenodd"/></g><g clip-path="url(#305d2ba28c)"><path fill="#81b7ff" d="M 106.914062 197.945312 L 111.488281 193.414062 L 111.488281 214.09375 L 106.914062 214.09375 Z M 106.914062 197.945312 " fill-opacity="1" fill-rule="nonzero"/></g><g clip-path="url(#3f8a05473a)"><path fill="#81b7ff" d="M 86.433594 204.214844 L 84.386719 201.785156 L 84.386719 202.976562 C 84.375 203.007812 84.367188 203.050781 84.367188 203.117188 C 84.367188 203.179688 84.375 203.242188 84.386719 203.304688 L 84.386719 214.09375 L 88.960938 214.09375 L 88.960938 201.785156 L 86.820312 204.21875 C 86.765625 204.226562 86.707031 204.230469 86.648438 204.230469 C 86.578125 204.230469 86.503906 204.226562 86.433594 204.214844 Z M 86.433594 204.214844 " fill-opacity="1" fill-rule="evenodd"/></g><g clip-path="url(#6e7ce83283)"><path fill="#000000" d="M 111.894531 193.257812 L 112.980469 189.214844 L 108.953125 190.359375 L 109.675781 191.074219 L 101.554688 199.246094 L 94.910156 192.386719 L 94.175781 191.585938 L 92.765625 193.199219 L 92.742188 193.222656 L 86.324219 200.550781 L 84.554688 198.777344 L 84.554688 201.265625 L 86.617188 203.550781 L 86.804688 203.316406 L 94.230469 194.808594 L 99.933594 200.882812 L 99.925781 200.886719 L 100.351562 201.328125 L 101.269531 202.308594 L 101.285156 202.296875 L 101.46875 202.484375 L 111.304688 192.675781 Z M 111.894531 193.257812 " fill-opacity="1" fill-rule="evenodd"/></g><path stroke-linecap="butt" transform="matrix(0, 0.75, -0.75, 0, 84.736641, 189.21822)" fill="none" stroke-linejoin="miter" d="M 0.000707234 0.497812 L 33.183001 0.497812 " stroke="#000000" stroke-width="1" stroke-opacity="1" stroke-miterlimit="4"/><path stroke-linecap="butt" transform="matrix(0.643362, 0.385467, -0.385467, 0.643362, 119.636394, 213.441226)" fill="none" stroke-linejoin="miter" d="M -0.000336326 7.001058 L 34.068045 7.001944 " stroke="#000000" stroke-width="14" stroke-opacity="1" stroke-miterlimit="4"/></svg>